<svg width="30" height="48" viewBox="0 0 30 48" fill="none" xmlns="http://www.w3.org/2000/svg">
<path d="M5.86666 47.8906C5.71098 47.8914 5.55601 47.8695 5.40666 47.8256C5.19836 47.7643 5.00426 47.6624 4.83555 47.5257C4.66683 47.3891 4.52684 47.2203 4.42366 47.0293C4.32047 46.8383 4.25612 46.6287 4.23432 46.4127C4.21253 46.1966 4.23371 45.9784 4.29666 45.7706L8.83166 29.8906H2.02666C1.8242 29.8978 1.62232 29.8648 1.43267 29.7936C1.24302 29.7223 1.06935 29.6143 0.921658 29.4756C0.59727 29.1904 0.398894 28.7885 0.369853 28.3576C0.340812 27.9266 0.483464 27.5017 0.766657 27.1756L21.9567 1.48562C22.1561 1.24483 22.4202 1.06607 22.7178 0.970397C23.0155 0.874724 23.3343 0.866125 23.6367 0.945615C23.8446 0.995143 24.0404 1.08623 24.2123 1.21341C24.3841 1.34058 24.5285 1.5012 24.6367 1.68562C24.86 2.05627 24.9282 2.49998 24.8267 2.92062L20.7867 20.8256H27.7267C28.0404 20.8274 28.3471 20.9189 28.6105 21.0893C28.874 21.2596 29.0832 21.5018 29.2136 21.7872C29.3439 22.0726 29.3899 22.3893 29.3462 22.7C29.3024 23.0106 29.1707 23.3023 28.9667 23.5406V23.5656L7.09666 47.3406C6.94311 47.5152 6.75379 47.6547 6.54155 47.7496C6.32931 47.8445 6.09914 47.8926 5.86666 47.8906ZM10.1617 27.8906C10.3163 27.8908 10.4689 27.9269 10.6072 27.9961C10.7456 28.0652 10.866 28.1655 10.9591 28.2891C11.0521 28.4127 11.1152 28.5562 11.1434 28.7082C11.1717 28.8603 11.1642 29.0169 11.1217 29.1656L6.63166 44.8906L26.9117 22.8256H19.5367C19.3846 22.8294 19.2337 22.7983 19.0954 22.735C18.9571 22.6716 18.8351 22.5775 18.7387 22.4598C18.6423 22.3422 18.574 22.2041 18.5389 22.0561C18.5039 21.9081 18.5031 21.754 18.5367 21.6056L22.5367 3.90562L2.76666 27.8906H10.1617Z" fill="black"/>
</svg>
