<!-- icon666.com - MILLIONS vector ICONS FREE --><svg id="Layer_2_00000165956729435680619870000004850263443553537674_" enable-background="new 0 0 512 512" viewBox="0 0 512 512" xmlns="http://www.w3.org/2000/svg" xmlns:xlink="http://www.w3.org/1999/xlink"><linearGradient id="Close_Brace_00000040559282651658982180000011139589809164248733_" gradientTransform="matrix(1 0 0 -1 0 512.05)" gradientUnits="userSpaceOnUse" x1="65.631" x2="339.997" y1="393.444" y2="119.068"><stop offset="0" stop-color="#fbe150"></stop><stop offset="1" stop-color="#f15318"></stop></linearGradient><g id="Icon"><path id="Close_Brace" d="m358.8 287.9h-37.1c-5.4.5-10.2 2-14.4 4.6-1.8 1.1-3.5 2.6-5.2 4.3s-3.2 3.8-4.5 6.4c-1.3 2.5-2.3 5.5-3 8.9s-1 7.4-.9 12v86.9c0 9.9-1.9 19.2-5.9 27.7s-9.1 16-15.6 22.2c-6.5 6.3-14 11.2-22.6 14.8-8.5 3.6-17.4 5.4-26.5 5.4h-69.8v-70.1h69.7v-87c0-7 .6-13.4 1.7-19.2s2.7-11 4.6-15.6 4.2-8.8 6.6-12.3c2.4-3.6 5-6.8 7.6-9.5 6-6.4 12.9-11.1 20.5-14.4-7.6-3.4-14.5-8.1-20.5-14.2-2.6-2.4-5.1-5.3-7.6-8.7-2.4-3.3-4.6-7.1-6.6-11.2s-3.5-8.8-4.6-13.8-1.7-10.6-1.7-16.6v-87.7h-69.8v-69.8h69.8c9.6 0 18.7 1.8 27.2 5.2 8.5 3.5 16 8.4 22.5 14.7s11.5 13.7 15.3 22.2c3.7 8.5 5.6 17.8 5.6 27.7v86.2c.3 5.9 1.5 11.1 3.4 15.6 1.8 3.9 4.6 7.4 8.3 10.6s9.2 4.8 16.4 4.8h37.1z" fill="url(#Close_Brace_00000040559282651658982180000011139589809164248733_)"></path></g></svg>