<!-- icon666.com - MILLIONS vector ICONS FREE --><svg id="Layer_2_00000155861702220319972030000004365577308431528589_" enable-background="new 0 0 512 512" viewBox="0 0 512 512" xmlns="http://www.w3.org/2000/svg" xmlns:xlink="http://www.w3.org/1999/xlink"><linearGradient id="Open_Brace_00000034786684097735820890000011077548650146224778_" gradientTransform="matrix(1 0 0 -1 0 512.05)" gradientUnits="userSpaceOnUse" x1="171.627" x2="446.526" y1="393.724" y2="118.826"><stop offset="0" stop-color="#fbe150"></stop><stop offset="1" stop-color="#f15318"></stop></linearGradient><g id="Icon"><path id="Open_Brace" d="m153.2 218h36.9c7 0 12.4-1.6 16.2-4.8s6.6-6.7 8.4-10.6c1.9-4.6 3.1-9.8 3.4-15.6v-86.2c0-9.9 1.9-19.2 5.6-27.7s8.8-16 15.3-22.2c6.4-6.3 13.9-11.1 22.5-14.6 8.5-3.5 17.6-5.2 27.2-5.2h70.1v69.8h-70.1v87.7c0 6-.6 11.6-1.7 16.6-1.1 5.1-2.7 9.6-4.6 13.8s-4.1 7.9-6.6 11.2c-2.4 3.3-5 6.2-7.6 8.7-6 6-12.9 10.7-20.5 14.2 7.7 3.3 14.5 8.1 20.5 14.4 2.6 2.8 5.1 5.9 7.6 9.5s4.6 7.7 6.6 12.3 3.5 9.9 4.6 15.6c1.1 5.8 1.7 12.2 1.7 19.2v86.9h70.1v70h-70.1c-9.1 0-17.9-1.8-26.5-5.4-8.5-3.6-16.1-8.5-22.6-14.8s-11.7-13.7-15.6-22.2-5.9-17.8-5.9-27.7v-86.9c.2-9-1.2-15.9-4-20.8s-6.1-8.5-9.6-10.7c-4.2-2.6-9-4.1-14.4-4.6h-36.9z" fill="url(#Open_Brace_00000034786684097735820890000011077548650146224778_)"></path></g></svg>